<?xml version="1.0" encoding="utf-8"?>
<!-- Svg Vector Icons : http://www.onlinewebfonts.com/icon -->
<!DOCTYPE svg PUBLIC "-//W3C//DTD SVG 1.1//EN" "http://www.w3.org/Graphics/SVG/1.1/DTD/svg11.dtd">
<svg version="1.1" xmlns="http://www.w3.org/2000/svg" xmlns:xlink="http://www.w3.org/1999/xlink" x="0px" y="0px" viewBox="0 0 256 256" enable-background="new 0 0 256 256" xml:space="preserve">
<metadata> Svg Vector Icons : http://www.onlinewebfonts.com/icon </metadata>
<g><g><g><path fill="#000000" d="M123,10.5c-1.2,0.2-3.6,1.1-5.5,2c-6.5,3-11.6,9.4-13.2,16.4c-4.1,17.6,11.8,33.6,29.4,29.5c5.9-1.4,12.4-6.2,15.4-11.6c1.8-3,3.3-8.8,3.3-12.1C152.4,19.2,138.1,7.5,123,10.5z M133,18.2c13.7,4.3,16.2,23.1,4,30.8c-4.3,2.8-10.3,3.4-15.1,1.5c-5.8-2.2-10.3-8.2-10.8-14.6C110.1,23.8,121.4,14.6,133,18.2z"/><path fill="#000000" d="M102.4,61.8c-12.5,2.7-22.5,13.1-24.7,25.6c-0.3,2-0.5,11.8-0.4,30.4l0.1,27.4l1.2,2.6c3.6,7.8,12.8,11.5,20.8,8.4c0.8-0.3,0.8,2,0.9,38.8l0.1,39.1l1.6,2.9c4.7,8.8,15.3,11.4,23.5,5.9l2.4-1.6l2.4,1.6c5.1,3.4,10.9,3.8,16.3,1.2c3.5-1.7,5.9-4.2,7.6-7.8l1.2-2.6l0.1-38.9c0.1-36.7,0.1-38.9,0.9-38.6c7.9,3,17.1-0.7,20.8-8.4l1.2-2.6l0.1-27.4c0.1-31.5,0.1-31.9-3.5-39.2c-1.8-3.6-2.8-5-5.9-8.1c-3-3-4.6-4.1-8.1-5.9c-7-3.4-7.6-3.5-33.4-3.5C111,61.2,104.5,61.4,102.4,61.8z M155,69.8c6,2.3,10.8,6.6,13.6,12.3c1,2,2,4.8,2.3,6.2c0.3,1.5,0.5,13.2,0.5,28.6c0,24.3-0.1,26.2-0.9,27.9c-1.4,3.2-4.8,5.3-8.3,5.3c-2.8,0-6.8-2.9-7.8-5.7c-0.3-0.9-0.5-9-0.5-23.9V98H151h-2.8v66.7c0,63.9,0,66.9-0.9,68.6c-2.6,5.6-9.3,7-13.8,2.8c-3-2.7-2.8-0.7-2.8-42v-37.6H128h-2.8l-0.1,38.2l-0.1,38.2l-1.4,1.8c-1.7,2.1-4.8,3.8-7.1,3.8c-3.2,0-7.1-2.7-8.3-5.7c-0.4-0.9-0.5-22-0.5-68.2V98h-2.8h-2.8v22.5c0,14.8-0.2,23-0.5,23.9c-1.1,2.9-5,5.6-8.2,5.7c-3.3,0-6.5-2.1-8-5.3c-0.8-1.7-0.9-3.6-0.9-28.4c0-28.7,0-29.2,2.5-34.4c3-6.1,9.4-11.3,16-13c1.8-0.5,8.1-0.6,25.7-0.5C151.9,68.7,152.3,68.8,155,69.8z"/></g></g></g>
</svg>